<svg xmlns="http://www.w3.org/2000/svg" viewBox="0 0 714 1024">
	<g>
		<path id="Path 1" fill-rule="evenodd" class="shp0" d="M296.93 297.82C307.66 277.43 330.66 263.31 357.25 263.31C383.84 263.31 406.85 277.43 417.58 297.82C465.96 315.37 496.85 352.5 496.85 393.89C496.85 454.32 432.86 500.34 357.25 500.34C281.66 500.34 217.65 454.34 217.65 393.89C217.65 352.5 248.54 315.37 296.93 297.82ZM320.48 323.66C320.48 340.39 336.97 354.01 357.25 354.01C377.53 354.01 394.02 340.39 394.02 323.66C394.02 307.53 378.23 293.3 357.25 293.3C338.09 293.3 320.48 306 320.48 323.66ZM247.64 393.89C247.64 436.04 296.81 470.34 357.25 470.34C417.68 470.34 466.85 436.04 466.85 393.89C466.85 369.79 450.29 347.33 423.22 333C418.94 357.8 398.06 377.09 372.25 382.47L372.25 414.94C382.54 413.02 392.52 409.18 401.69 403.48C408.72 399.11 417.97 401.26 422.34 408.3C426.72 415.33 424.57 424.58 417.53 428.95C399.21 440.36 378.36 446.38 357.25 446.38C336.14 446.38 315.3 440.36 296.97 428.95C289.93 424.58 287.78 415.33 292.16 408.3C296.53 401.26 305.79 399.11 312.82 403.48C321.98 409.18 331.96 413.02 342.25 414.94L342.25 382.47C317.29 377.27 295.7 358.53 291.28 333C264.21 347.33 247.65 369.8 247.64 393.89ZM431.61 259.49C438.06 243.97 454.56 233.55 472.68 233.55C490.8 233.55 507.3 243.97 513.75 259.49C516.93 267.14 513.3 275.92 505.65 279.1C498 282.27 489.23 278.65 486.04 271C484.55 267.41 479.74 263.55 472.68 263.55C465.62 263.55 460.8 267.41 459.31 271C456.13 278.65 447.35 282.27 439.7 279.1C432.06 275.92 428.43 267.14 431.61 259.49ZM208.86 279.1C201.21 275.92 197.59 267.14 200.76 259.49C207.2 243.97 223.71 233.55 241.83 233.55C259.95 233.55 276.46 243.97 282.9 259.49C286.08 267.14 282.45 275.92 274.8 279.1C267.14 282.27 258.37 278.65 255.19 270.99C253.71 267.41 248.88 263.55 241.83 263.55C234.77 263.55 229.95 267.41 228.46 270.99C225.29 278.65 216.51 282.27 208.86 279.1Z" />
		<path id="Path 2" fill-rule="evenodd" class="shp0" d="M679.5 753.64C712.93 793.68 724.73 853.73 704.7 911.89C675.58 996.44 591.25 1042.54 516.96 1016.95C492.24 1008.43 471.64 992.96 456.15 973.08C424.55 985.91 391.34 992.43 357.25 992.43C323.16 992.43 289.95 985.91 258.35 973.08C242.86 992.96 222.27 1008.43 197.55 1016.95C123.64 1042.4 39.07 996.85 9.8 911.89C-10.37 853.32 1.84 793.36 35.01 753.64C28.1 743.29 23.12 731.66 20.46 719.39C14.95 694.08 13.53 665.58 16.23 634.69C24.78 536.69 98.45 470.73 149.66 436.26C126.12 398.67 112.48 354.27 112.48 306.73C112.48 295.15 113.31 283.75 114.88 272.59C15.99 225.75 -2.05 89 84.41 25.85C150.7 -22.58 245.27 -0.48 289.32 71.56C333.59 58.75 380.94 58.76 425.18 71.56C469.35 -0.67 563.95 -22.48 630.1 25.85C716.51 88.97 698.56 225.73 599.63 272.59C601.19 283.76 602.02 295.15 602.02 306.74C602.02 354.27 588.38 398.68 564.84 436.27C600.39 460.3 652.53 503.67 680.05 565.23C683.43 572.79 680.03 581.66 672.47 585.05C664.91 588.43 656.04 585.04 652.66 577.47C627.93 522.14 580.03 482.63 547.5 460.75C533.92 477.52 518.3 492.33 500.84 504.98C566.15 602.42 516.06 677.43 527.34 716.78C572.52 698.39 620.75 705.05 657.33 732.57C660.74 726.54 663.22 720 664.74 713.02C669.3 692.05 670.66 668.3 668.8 642.43C668.2 634.16 674.42 626.98 682.68 626.39C690.97 625.8 698.13 632.01 698.72 640.27C700.79 669 699.22 695.62 694.05 719.39C691.38 731.66 686.4 743.29 679.5 753.64L679.5 753.64ZM500.39 731.03C479.76 673.01 537.42 613.41 475.5 521.08C401.83 561.79 312.05 561.45 239 521.08C177.54 611.43 234.31 671.3 214.12 731.03C247.16 752.84 271.04 786.72 282.34 823.38C296 830.04 310.35 834.84 325.09 837.68C333.23 839.25 338.55 847.11 336.98 855.25C335.41 863.38 327.54 868.72 319.41 867.14C309.3 865.18 299.35 862.44 289.63 858.95C292.8 891.11 286.81 922.01 274.54 947.24C301.07 957.33 328.82 962.43 357.25 962.43C385.68 962.43 413.43 957.33 439.96 947.24C427.67 921.96 421.72 891.01 424.88 858.95C415.15 862.44 405.2 865.19 395.09 867.14C386.99 868.7 379.09 863.41 377.52 855.25C375.95 847.11 381.28 839.25 389.41 837.68C404.14 834.84 418.5 830.04 432.16 823.38C443.37 786.97 467.29 752.86 500.39 731.03ZM198.96 756.98C198.83 756.9 198.71 756.82 198.59 756.74C102.8 692.19 -0.63 789.48 38.17 902.12C62.02 971.38 129.68 1008.6 187.78 988.59C278.1 957.48 286.82 816.63 198.96 756.98ZM49.77 713.02C51.29 720.01 53.77 726.54 57.18 732.57C93.76 705.04 141.95 698.38 187.16 716.78C198.44 677.41 148.27 602.53 213.66 504.98C196.2 492.33 180.57 477.52 167 460.74C120.6 491.84 53.64 551.1 46.11 637.31C43.68 665.19 44.91 690.66 49.77 713.02ZM357.25 521.5C475.64 521.5 572.03 425.17 572.03 306.73C572.03 188.38 475.73 91.96 357.25 91.96C238.51 91.96 142.48 188.65 142.48 306.73C142.48 425.16 238.83 521.5 357.25 521.5ZM126.88 223.96C81.1 183.9 80.56 113.69 124.91 81.29C158.3 56.89 205.42 62.69 237.2 93.41C244.66 89.21 252.37 85.36 260.31 81.93C224.04 28.95 152.43 13.31 102.1 50.07C36.73 97.82 47.65 201.47 121.13 242.12C122.51 237.04 124.66 230.15 126.88 223.96ZM139.7 194.44C156.79 161.29 181.08 132.69 211.1 110.37C190.7 94.16 162.87 90.71 142.6 105.52C116.29 124.73 115.06 166.12 139.7 194.44ZM454.19 81.93C462.13 85.36 469.84 89.2 477.31 93.41C509.08 62.69 556.2 56.89 589.6 81.29C633.89 113.65 633.46 183.85 587.62 223.96C589.8 230 591.9 236.72 593.38 242.12C666.71 201.55 677.9 97.91 612.41 50.07C562.68 13.74 491.08 28.2 454.19 81.93ZM571.9 105.52C552.14 91.08 524.38 93.7 503.41 110.37C533.43 132.69 557.71 161.29 574.8 194.45C599.54 166 598.11 124.66 571.9 105.52ZM649.61 765.47C649.53 765.4 649.45 765.34 649.38 765.27C588.85 705.78 485.12 742.94 459.23 837.74C441.24 903.75 471.1 969.42 526.72 988.58C586.41 1009.15 653.11 969.55 676.34 902.12C694.57 849.19 680.86 796.33 649.61 765.47Z" />
	</g>
</svg>