<svg xmlns="http://www.w3.org/2000/svg" viewBox="0 0 896 960" >
	<g>
		<path id="Path 1" fill-rule="evenodd" class="shp0" d="M608.01 144L608.01 400C607.97 444.16 572.17 479.95 528.01 480L512.01 480L512.01 512C520.85 512 528.01 519.16 528.01 528L528.01 656C528.01 664.84 520.85 672 512.01 672L496.01 672L496.01 944C496.01 952.84 488.85 960 480.01 960L416.01 960C407.18 960 400.01 952.84 400.01 944L400.01 672L384.01 672C375.18 672 368.01 664.84 368.01 656L368.01 528C368.01 519.16 375.18 512 384.01 512L384.01 480L368.01 480C323.85 479.95 288.06 444.16 288.01 400L288.01 144C288.06 99.84 323.85 64.05 368.01 64L528.01 64C572.17 64.05 607.97 99.84 608.01 144ZM480.01 480L416.01 480L416.01 512L480.01 512L480.01 480ZM496.01 544L400.01 544L400.01 640L496.01 640L496.01 544ZM464.01 672L432.01 672L432.01 928L464.01 928L464.01 672ZM576.01 400L576.01 352L528.01 352C519.18 352 512.01 344.84 512.01 336C512.01 327.16 519.18 320 528.01 320L576.01 320L576.01 288L528.01 288C519.18 288 512.01 280.84 512.01 272C512.01 263.16 519.18 256 528.01 256L576.01 256L576.01 224L528.01 224C519.18 224 512.01 216.84 512.01 208C512.01 199.16 519.18 192 528.01 192L576.01 192L576.01 144C575.98 117.5 554.51 96.03 528.01 96L496.01 96L496.01 144C496.01 152.84 488.85 160 480.01 160C471.18 160 464.01 152.84 464.01 144L464.01 96L432.01 96L432.01 144C432.01 152.84 424.85 160 416.01 160C407.18 160 400.01 152.84 400.01 144L400.01 96L368.01 96C341.51 96.03 320.04 117.5 320.01 144L320.01 192L368.01 192C376.85 192 384.01 199.16 384.01 208C384.01 216.84 376.85 224 368.01 224L320.01 224L320.01 256L368.01 256C376.85 256 384.01 263.16 384.01 272C384.01 280.84 376.85 288 368.01 288L320.01 288L320.01 320L368.01 320C376.85 320 384.01 327.16 384.01 336C384.01 344.84 376.85 352 368.01 352L320.01 352L320.01 400C320.04 426.5 341.51 447.97 368.01 448L400.01 448L400.01 400C400.01 391.16 407.18 384 416.01 384C424.85 384 432.01 391.16 432.01 400L432.01 448L464.01 448L464.01 400C464.01 391.16 471.18 384 480.01 384C488.85 384 496.01 391.16 496.01 400L496.01 448L528.01 448C554.51 447.97 575.98 426.5 576.01 400ZM448.01 576C456.85 576 464.01 583.16 464.01 592C464.01 600.84 456.85 608 448.01 608C439.18 608 432.01 600.84 432.01 592C432.01 583.16 439.18 576 448.01 576ZM224.01 16L224.01 176C224.01 181.45 223.08 186.87 221.27 192.01C212.43 217 185.01 230.1 160.01 221.26C135.02 212.42 121.92 185 130.76 160.01C139.6 135.01 167.02 121.92 192.01 130.75L192.01 36.49L96.01 60.49L96.01 208C96.01 213.45 95.08 218.87 93.27 224.01C84.43 249 57.01 262.1 32.01 253.26C7.02 244.42 -6.08 217 2.76 192.01C11.6 167.01 39.02 153.92 64.01 162.75L64.01 48C64.01 40.66 69.01 34.26 76.13 32.48L204.13 0.48C208.91 -0.72 213.98 0.36 217.86 3.39C221.74 6.42 224.01 11.07 224.01 16ZM64.01 208C64.01 199.16 56.85 192 48.01 192C39.18 192 32.01 199.16 32.01 208C32.01 216.84 39.18 224 48.01 224C56.85 223.99 64 216.83 64.01 208ZM192.01 176C192.01 167.16 184.85 160 176.01 160C167.18 160 160.01 167.16 160.01 176C160.01 184.84 167.18 192 176.01 192C184.85 191.99 192 184.83 192.01 176ZM895.4 364.04C897.6 372.59 892.45 381.32 883.89 383.52L768.01 412.49L768.01 560C768.01 565.45 767.08 570.87 765.27 576.01C756.43 601 729.01 614.1 704.01 605.26C679.02 596.43 665.92 569 674.76 544.01C683.6 519.01 711.02 505.92 736.01 514.75L736.01 400C736.01 392.66 741.01 386.26 748.13 384.48L876.13 352.48C884.63 350.42 893.21 355.57 895.4 364.04ZM736.01 560C736.01 551.16 728.85 544 720.01 544C711.18 544 704.01 551.16 704.01 560C704.01 568.84 711.18 576 720.01 576C728.85 575.99 736 568.83 736.01 560Z" />
		<path id="Path 2" fill-rule="evenodd" class="shp0" d="M224.01 656L224.01 816C224.01 821.45 223.08 826.87 221.27 832.01C212.43 857 185.01 870.1 160.01 861.26C135.02 852.43 121.92 825 130.76 800.01C139.6 775.01 167.02 761.92 192.01 770.75L192.01 656C192.01 647.16 199.18 640 208.01 640C216.85 640 224.01 647.16 224.01 656ZM192.01 816C192.01 807.16 184.85 800 176.01 800C167.18 800 160.01 807.16 160.01 816C160.01 824.84 167.18 832 176.01 832C184.85 831.99 192 824.83 192.01 816Z" />
	</g>
</svg>