<svg xmlns="http://www.w3.org/2000/svg" viewBox="0 0 120 108">
	<g>
		<path id="Path 1" fill-rule="evenodd" class="shp0" d="M119.87 34.63C119.85 34.71 119.82 34.78 119.78 34.86C119.76 34.89 119.76 34.93 119.74 34.97C119.71 35.03 119.66 35.07 119.62 35.13C119.59 35.17 119.58 35.21 119.55 35.25L61.54 107.25C61.52 107.29 61.48 107.3 61.45 107.33C61.33 107.46 61.19 107.56 61.04 107.66C60.95 107.71 60.86 107.78 60.76 107.82C60.73 107.84 60.71 107.87 60.67 107.88C60.45 107.96 60.21 108 59.99 108C59.72 108 59.46 107.93 59.22 107.83C59.16 107.8 59.1 107.77 59.04 107.74C58.82 107.62 58.62 107.47 58.45 107.27C58.45 107.26 58.44 107.26 58.43 107.25L58.42 107.24C58.42 107.24 58.41 107.23 58.41 107.23L0.43 35.25C0.4 35.21 0.38 35.17 0.35 35.13C0.32 35.07 0.27 35.03 0.24 34.97C0.22 34.93 0.21 34.89 0.19 34.86C0.16 34.78 0.13 34.71 0.1 34.63C0.07 34.53 0.04 34.44 0.03 34.34C0.01 34.26 0.01 34.18 0 34.1C0 34 0 33.91 0.01 33.81C0.02 33.72 0.04 33.64 0.05 33.56C0.08 33.46 0.11 33.37 0.14 33.28C0.16 33.23 0.17 33.18 0.19 33.14C0.2 33.1 0.23 33.08 0.25 33.04C0.27 33.01 0.28 32.97 0.3 32.94L20.3 0.94C20.39 0.79 20.5 0.66 20.62 0.54C20.63 0.53 20.65 0.53 20.66 0.52C20.83 0.37 21.02 0.25 21.23 0.17C21.26 0.16 21.28 0.13 21.31 0.12C21.33 0.11 21.35 0.12 21.37 0.11C21.57 0.05 21.78 0 21.99 0L97.99 0C98.21 0 98.42 0.05 98.62 0.11C98.64 0.12 98.66 0.12 98.69 0.12C98.72 0.14 98.74 0.16 98.76 0.17C98.98 0.26 99.18 0.38 99.36 0.54C99.36 0.54 99.36 0.54 99.36 0.55C99.49 0.66 99.59 0.79 99.68 0.94L119.68 32.94C119.7 32.97 119.71 33.01 119.73 33.04C119.75 33.08 119.78 33.1 119.79 33.14C119.82 33.18 119.82 33.23 119.84 33.28C119.87 33.37 119.9 33.47 119.92 33.56C119.94 33.64 119.96 33.72 119.97 33.81C119.97 33.91 119.98 34 119.97 34.1C119.97 34.18 119.96 34.26 119.94 34.34C119.93 34.44 119.9 34.53 119.87 34.63ZM6.17 36L53.96 95.33L32.28 36L6.17 36ZM5.6 32L30.82 32L21.51 6.53L5.6 32ZM88.94 32L114.38 32L98.44 6.51L88.94 32ZM36.54 36L59.64 99.21L83.19 36L36.54 36ZM55.78 4L24.85 4L34.45 30.27L55.78 4ZM59.99 5.18L38.19 32L81.78 32L59.99 5.18ZM85.39 30.09L95.11 4L64.19 4L85.39 30.09ZM113.81 36L87.45 36L64.78 96.86L113.81 36Z" />
	</g>
</svg>