<svg xmlns="http://www.w3.org/2000/svg" viewBox="0 0 726 1024">
	<g>
		<path id="Path 1" fill-rule="evenodd" class="shp0" d="M726.28 196.66L726.28 325.16C726.28 373.45 714.25 421.27 691.51 463.86C704.62 540.48 690.99 620.92 649.81 690.81L618.53 743.88C615.74 748.63 610.73 751.27 605.6 751.27C603.01 751.27 600.39 750.6 597.99 749.19C590.86 744.99 588.48 735.79 592.69 728.65L623.96 675.58C629.48 666.22 634.42 656.64 638.85 646.91L239.61 646.91C231.33 646.91 224.61 640.19 224.61 631.91C224.61 623.63 231.33 616.91 239.61 616.91L650.64 616.91C681.62 524.01 666.51 420.47 606.9 339.37L592.66 320L133.62 320L119.38 339.37C59.77 420.47 44.66 524.01 75.64 616.91L175.69 616.91C183.97 616.91 190.69 623.63 190.69 631.91C190.69 640.19 183.97 646.91 175.69 646.91L87.42 646.91C91.86 656.64 96.8 666.22 102.32 675.58L191.15 826.34L535.13 826.34L560.23 783.73C564.44 776.59 573.64 774.22 580.77 778.42C587.91 782.63 590.29 791.82 586.08 798.96L520.48 910.29L603.76 985.33C610.64 991.53 612.94 1001.12 609.62 1009.77C606.3 1018.41 598.17 1024 588.91 1024L137.37 1024C128.11 1024 119.98 1018.41 116.66 1009.77C113.34 1001.12 115.64 991.53 122.52 985.33L205.8 910.29L76.47 690.81C35.29 620.92 21.66 540.48 34.77 463.86C12.03 421.27 0 373.45 0 325.16L0 196.66C0 141.16 45.15 96.01 100.65 96.01C125.39 96.01 149.54 105.36 167.89 121.81L167.89 99.76C152.52 95.2 141.26 80.97 141.26 64.13L141.26 37.18C141.26 16.68 157.94 0 178.44 0L459.06 0C467.35 0 474.06 6.71 474.06 15C474.06 23.28 467.35 30 459.06 30L178.44 30C174.48 30 171.26 33.22 171.26 37.18L171.26 64.13C171.26 68.09 174.48 71.31 178.44 71.31L547.84 71.31C551.8 71.31 555.02 68.09 555.02 64.13L555.02 37.18C555.02 33.22 551.8 30 547.84 30L522.99 30C514.7 30 507.99 23.28 507.99 15C507.99 6.71 514.7 0 522.99 0L547.84 0C568.34 0 585.02 16.68 585.02 37.18L585.02 64.13C585.02 80.97 573.76 95.2 558.39 99.76L558.39 121.81C576.74 105.36 600.89 96.01 625.63 96.01C681.13 96.01 726.28 141.16 726.28 196.66L726.28 196.66ZM696.28 325.16L696.28 196.66C696.28 157.7 664.58 126.01 625.63 126.01C606.74 126.01 588.34 133.75 575.14 147.24L558.39 164.36L558.39 207.25L596.58 168.22C604.17 160.46 614.76 156.01 625.63 156.01C648.04 156.01 666.28 174.25 666.28 196.66L666.28 325.16C666.28 340.76 664.69 356.42 661.57 371.79C668.79 386.39 674.89 401.39 679.87 416.69C690.65 387.46 696.28 356.42 696.28 325.16L696.28 325.16ZM570.61 290L542.9 252.3L183.38 252.3L155.67 290L570.61 290ZM64.71 371.79C61.59 356.42 60 340.76 60 325.16L60 196.66C60 174.25 78.24 156.01 100.65 156.01C111.52 156.01 122.11 160.46 129.71 168.23L167.9 207.25L167.9 164.36L151.15 147.24C137.94 133.75 119.53 126.01 100.65 126.01C61.69 126.01 30 157.7 30 196.66L30 325.16C30 356.42 35.63 387.45 46.41 416.67C51.39 401.38 57.49 386.38 64.71 371.79ZM156.38 238.38L108.26 189.21C106.3 187.2 103.45 186.01 100.65 186.01C94.78 186.01 90 190.79 90 196.66L90 325.16C90 326.39 90.05 327.63 90.08 328.86C91.77 326.43 93.45 324 95.2 321.6L156.38 238.38ZM196.65 222.3L529.63 222.3C528.84 218.02 528.39 213.67 528.39 209.24L528.39 101.31L197.89 101.31L197.89 209.25C197.89 213.67 197.44 218.03 196.65 222.3ZM208.83 856.34L232.81 897.04C233.26 897.8 233.66 898.6 234.03 899.39L273.27 899.39L264.16 856.34L208.83 856.34ZM517.45 856.34L464.19 856.34L455.07 899.39L492.24 899.39C492.62 898.6 493.02 897.8 493.47 897.04L517.45 856.34ZM349.17 899.39L349.17 856.34L294.82 856.34L303.94 899.39L349.17 899.39ZM424.41 899.39L433.52 856.34L379.17 856.34L379.17 899.39L424.41 899.39ZM497.03 929.39L229.25 929.39C228.72 929.96 157.71 994 157.71 994L568.57 994C568.57 994 497.56 929.96 497.03 929.39ZM631.08 321.6C632.85 324.01 634.54 326.46 636.24 328.9C636.26 327.65 636.28 326.41 636.28 325.16L636.28 196.66C636.28 190.79 631.5 186.01 625.63 186.01C622.82 186.01 619.98 187.21 618.02 189.21L569.9 238.37L631.08 321.6Z" />
	</g>
</svg>