<svg xmlns="http://www.w3.org/2000/svg" viewBox="0 0 1015 1024"><g>
		<path id="Path 1" fill-rule="evenodd" class="shp0" d="M1015.41 563.22L1015.41 980.41C1015.41 1004.45 995.85 1024 971.82 1024L322.98 1024C298.95 1024 279.39 1004.45 279.39 980.41L279.39 954.63L110.29 954.63L110.29 1008.92C110.29 1017.22 103.56 1023.95 95.26 1023.95C86.95 1023.95 80.22 1017.22 80.22 1008.92L80.22 954.63L49.66 954.63C22.28 954.63 0 932.36 0 904.98L0 594.63C0 586.33 6.73 579.6 15.03 579.6C23.34 579.6 30.07 586.33 30.07 594.63L30.07 904.98C30.07 915.78 38.85 924.57 49.66 924.57L458.38 924.57C469.18 924.57 477.97 915.78 477.97 904.98L477.97 379.97C477.97 369.17 469.18 360.38 458.38 360.38L49.66 360.38C38.85 360.38 30.07 369.17 30.07 379.97L30.07 534.5C30.07 542.8 23.34 549.53 15.03 549.53C6.73 549.53 0 542.8 0 534.5L0 379.97C0 352.59 22.28 330.32 49.66 330.32L128.52 330.32L128.52 59.93C128.52 43.52 141.87 30.17 158.28 30.17L181.48 30.17L181.48 23.41C181.48 10.5 191.98 0 204.88 0L321.32 0C334.22 0 344.72 10.5 344.73 23.41L344.73 30.17L367.93 30.17C384.34 30.17 397.69 43.52 397.69 59.93L397.69 330.32L458.39 330.32C485.76 330.32 508.04 352.59 508.04 379.97L508.04 519.64L535.91 519.64L535.91 482.11C535.91 468.07 547.34 456.65 561.38 456.65L733.42 456.65C747.47 456.65 758.89 468.07 758.89 482.11L758.89 519.64L971.82 519.64C995.86 519.64 1015.41 539.19 1015.41 563.22ZM322.98 993.94L397.75 993.94L397.75 954.63L309.46 954.63L309.46 980.41C309.46 987.87 315.52 993.94 322.98 993.94ZM458.38 954.63L427.82 954.63L427.82 993.93L803.17 993.93L803.17 549.7L707.53 549.7C699.23 549.7 692.5 542.97 692.5 534.67C692.5 526.37 699.23 519.64 707.53 519.64L728.82 519.64L728.82 486.72L565.98 486.72L565.98 519.64L647.4 519.64C655.7 519.64 662.43 526.37 662.43 534.67C662.43 542.97 655.7 549.7 647.4 549.7L508.04 549.7L508.04 904.98C508.04 932.36 485.76 954.63 458.38 954.63ZM863.32 549.7L833.24 549.7L833.24 991.8L863.32 991.8L863.32 549.7ZM158.58 330.32L367.62 330.32L367.62 60.23L344.72 60.23L344.72 66.99C344.72 79.9 334.22 90.4 321.32 90.4L204.88 90.4C191.98 90.4 181.48 79.9 181.48 66.99L181.48 60.23L158.58 60.23L158.58 330.32ZM211.55 60.33L314.66 60.33L314.66 30.07L211.55 30.07L211.55 60.33ZM985.34 563.23C985.34 555.77 979.28 549.7 971.82 549.7L893.39 549.7L893.39 993.94L971.82 993.94C979.28 993.94 985.34 987.87 985.34 980.41L985.34 563.23Z" />
		<path id="Path 2" fill-rule="evenodd" class="shp0" d="M543.06 848.33L543.06 804.58C543.06 786 558.18 770.88 576.76 770.88L687.84 770.88C706.43 770.88 721.55 786 721.55 804.58L721.55 848.33C721.55 866.91 706.43 882.03 687.84 882.03L576.76 882.03C558.18 882.03 543.06 866.91 543.06 848.33ZM573.13 848.33C573.13 850.33 574.76 851.96 576.76 851.96L687.84 851.96C689.85 851.96 691.48 850.33 691.48 848.33L691.48 804.58C691.48 802.58 689.85 800.94 687.84 800.94L576.76 800.94C574.76 800.94 573.13 802.58 573.13 804.58L573.13 848.33ZM112.49 862.05C104.19 862.05 97.46 855.32 97.46 847.02L97.46 437.94C97.46 429.63 104.19 422.9 112.49 422.9C120.79 422.9 127.52 429.63 127.52 437.94L127.52 847.02C127.52 855.32 120.79 862.05 112.49 862.05ZM206.84 862.05C198.54 862.05 191.81 855.32 191.81 847.02L191.81 437.94C191.81 429.63 198.54 422.9 206.84 422.9C215.15 422.9 221.88 429.63 221.88 437.94L221.88 847.02C221.88 855.32 215.15 862.05 206.84 862.05ZM301.2 862.05C292.89 862.05 286.16 855.32 286.16 847.02L286.16 437.94C286.16 429.63 292.89 422.9 301.2 422.9C309.5 422.9 316.23 429.63 316.23 437.94L316.23 847.02C316.23 855.32 309.5 862.05 301.2 862.05ZM395.55 862.05C387.24 862.05 380.51 855.32 380.51 847.02L380.51 437.94C380.51 429.63 387.24 422.9 395.55 422.9C403.85 422.9 410.58 429.63 410.58 437.94L410.58 847.02C410.58 855.32 403.85 862.05 395.55 862.05Z" />
	</g>
</svg>