<svg xmlns="http://www.w3.org/2000/svg" viewBox="0 0 1023 1024">
	<g>
		<path id="Path 1" fill-rule="evenodd" d="M1023.27 418.32L1023.24 419.57C1022.31 467.41 989.05 508.15 942.36 518.65L612.94 592.67C612.33 592.81 611.71 592.9 611.1 592.98L206.9 997.18C189.6 1014.47 166.6 1024 142.14 1024C117.68 1024 94.68 1014.47 77.38 997.18L26.78 946.57C-8.92 910.87 -8.92 852.77 26.78 817.06L439.39 404.45L505.55 82.81C515.37 35.05 556.28 1.03 605.03 0.08C717.65 -2.13 823.52 40.54 903.17 120.18C982.81 199.83 1025.47 305.71 1023.27 418.32ZM577.33 570.21L453.75 446.63L302.34 598.04L425.92 721.62L577.33 570.21ZM397.65 749.88L274.07 626.3L55.05 845.33C34.92 865.45 34.92 898.18 55.05 918.3L63.4 926.66L138.69 851.36C146.5 843.56 159.15 843.56 166.96 851.36C174.77 859.17 174.77 871.83 166.96 879.63L91.67 954.92L105.66 968.91C115.4 978.66 128.36 984.02 142.14 984.02C155.92 984.02 168.88 978.66 178.63 968.91L397.65 749.88ZM874.9 148.45C803.02 76.57 707.51 38.06 605.81 40.05C575.86 40.64 550.74 61.53 544.7 90.87L478.14 414.48L489.89 426.23L549.05 289.33C553.43 279.2 565.2 274.53 575.33 278.92C585.46 283.29 590.13 295.06 585.75 305.19L520.29 456.63L529.89 466.23L606.49 389.63C614.29 381.83 626.95 381.83 634.75 389.63C642.56 397.44 642.56 410.09 634.75 417.9L558.15 494.5L568.18 504.52L719.62 439.06C729.75 434.68 741.51 439.35 745.89 449.48C750.27 459.61 745.61 471.38 735.48 475.76L598.58 534.92L614.91 551.25L933.59 479.64C962.27 473.2 982.7 448.17 983.28 418.78L983.3 417.54C985.28 315.9 946.79 220.33 874.9 148.45ZM693.91 350.46C693.91 355.71 691.77 360.87 688.05 364.59C684.33 368.31 679.17 370.44 673.92 370.44C668.66 370.44 663.5 368.31 659.78 364.59C656.07 360.87 653.93 355.71 653.93 350.46C653.93 345.2 656.07 340.04 659.78 336.32C663.5 332.61 668.66 330.47 673.92 330.47C679.19 330.47 684.33 332.61 688.05 336.32C691.77 340.04 693.91 345.2 693.91 350.46ZM224.78 813.52C224.78 818.8 222.64 823.93 218.93 827.67C215.21 831.39 210.05 833.53 204.79 833.53C199.54 833.53 194.38 831.39 190.66 827.67C186.94 823.93 184.81 818.8 184.81 813.52C184.81 808.26 186.94 803.11 190.66 799.39C194.38 795.67 199.54 793.53 204.79 793.53C210.05 793.53 215.21 795.67 218.93 799.39C222.64 803.1 224.78 808.26 224.78 813.52Z" />
	</g>
</svg>