<svg xmlns="http://www.w3.org/2000/svg" viewBox="0 0 1024 890"><g>
		<path id="Path 1" fill-rule="evenodd" class="shp0" d="M1024 730.63L1024 798.46C1024 848.93 982.93 890 932.46 890L641.92 890C532.05 890 430.51 845.4 357.12 771.82L103.97 518.01C98.12 512.14 98.13 502.65 104 496.79C109.86 490.94 119.36 490.96 125.21 496.82L378.36 750.63C450.16 822.62 545.75 860 641.92 860L932.45 860C966.39 860 994 832.4 994 798.46L994 745.63L607.01 745.63C560.14 745.63 516.09 727.35 482.99 694.16L86.08 296.17L47.29 334.96C24.24 358.02 24.21 395.56 47.24 418.65L74.6 446.08C80.45 451.94 80.43 461.44 74.57 467.29C68.69 473.15 59.19 473.12 53.35 467.26L26 439.83C-8.7 405.05 -8.66 348.49 26.08 313.74L75.34 264.48C109.77 227.8 294.69 30.8 305.52 19.26C326.1 -2.66 360 -5.91 384.37 11.7L386.41 13.18C412.03 31.7 426.61 62.1 425.4 94.51C423.18 154.03 457.36 184.1 503.35 183.26C491.91 133.29 494 100.12 509.7 79.64C520.43 65.63 536.78 58.53 558.3 58.52L558.33 58.52C583.33 58.52 616.58 72.58 633.14 139.58C640.43 169.05 641.85 198.12 642.12 208.7C647.91 218.88 651.86 230.11 653.58 241.83L672.42 370.29C677.03 401.76 698.39 428.28 728.17 439.48C742.24 444.77 841.68 482.19 855.69 487.46C891.29 500.85 922.83 521.38 949.45 548.47C955.26 554.38 955.18 563.87 949.27 569.68C943.36 575.49 933.86 575.41 928.05 569.5C919.07 560.35 909.44 552.06 899.23 544.63C914.04 603.01 874.07 664 808.1 664L698.83 664C667.25 664 640.75 686.09 633.93 715.63L993.5 715.63C991.38 683.42 982.44 651.74 967.35 623.21C963.47 615.88 966.27 606.81 973.6 602.93C980.91 599.06 989.99 601.85 993.87 609.17C1013.58 646.43 1024 688.43 1024 730.63ZM311.09 479.3C296.43 359.45 256.95 243.12 205.56 169.58L106.97 274.62L311.09 479.3ZM279.64 90.66C320.61 110.96 365.76 116.22 395.39 103.89C395.3 100.43 395.29 96.95 395.42 93.38C396.89 53.9 367.27 36.58 366.79 36.01C354.62 27.21 337.68 28.83 327.4 39.79L279.64 90.66ZM698.83 634L808.1 634C869.25 634 893.71 560.86 850.21 517.53C844.56 515.26 852.19 518.23 732.66 473.22C664.97 495.6 585.23 507.08 526.93 465.54C454.95 414.25 443.12 306.77 442.22 196.79C419.92 182.42 405.71 160.53 399.3 134.36C355.13 148.63 300.15 136.16 258.32 113.38L226.51 147.27C297.04 244.54 335.12 393.65 344.62 512.92L504.24 672.98C530.81 699.62 565.91 714.63 603.39 715.54C610.66 669.4 650.68 634 698.83 634ZM533.09 178.64C539.38 176.83 545.73 174.52 552.07 171.66C570.33 163.41 591.65 164.71 609.26 174.74C603.84 136.02 589.82 88.52 558.33 88.52L558.31 88.52C540.68 88.52 535.28 95.57 533.51 97.88C526.57 106.93 521.3 128.32 533.09 178.64ZM472.37 209.75C473.61 287.8 481.07 396.02 544.34 441.11C578.8 465.67 628.3 469.95 691.79 453.96C669.06 438.1 652.49 414.58 645.36 387.46L578.16 387.46C569.87 387.46 563.16 380.74 563.16 372.46C563.16 364.17 569.87 357.46 578.16 357.46L640.21 357.46L631.66 299.15L569.15 299.15C560.86 299.15 554.15 292.44 554.15 284.15C554.15 275.87 560.86 269.15 569.15 269.15L627.26 269.15L623.9 246.18C619.54 216.45 591.69 186.69 564.42 199C535.94 211.86 503.04 217.48 472.37 209.75Z" />
	</g>
</svg>