<svg xmlns="http://www.w3.org/2000/svg" viewBox="0 0 960 896"><g>
		<path id="Path 1" fill-rule="evenodd" class="shp0" d="M959.95 878.77C959.99 879.18 960 879.59 960 880C960 888.84 952.84 896 944 896L16 896C15.73 896 15.47 895.99 15.2 895.98C6.37 895.54 -0.42 888.03 0.02 879.2L32.02 239.2C32.45 230.69 39.47 224 48 224L160 224L160 144C159.99 127.61 162.79 111.35 168.26 95.9C194.79 20.96 277.06 -18.28 352 8.26C367.45 2.79 383.71 -0.01 400.1 0C479.6 0.03 544.03 64.5 544 144L544 224L656 224C664.52 224 671.55 230.69 671.98 239.2L682.42 448L912 448C920.36 448 927.31 454.44 927.95 462.77L959.95 878.77ZM416.05 462.77C416.69 454.44 423.64 448 432 448L522.38 448L512.78 256L448 256L448 304C448 312.84 440.84 320 432 320C423.16 320 416 312.84 416 304L416 256L192 256L192 359.44L232.88 386.69C237.33 389.66 240 394.65 240 400L240 528C240 536.84 232.84 544 224 544L128 544C119.16 544 112 536.84 112 528L112 400C112 394.65 114.67 389.66 119.12 386.69L160 359.44L160 256L63.22 256L32.82 864L385.18 864L416.05 462.77ZM144 408.56L144 512L208 512L208 408.56L176 387.23L144 408.56ZM192 224L256 224L256 144C256 100.55 275.65 59.43 309.45 32.14C307.65 32.05 305.83 32 304 32C242.17 32.07 192.07 82.17 192 144L192 224ZM288 144L288 224L416 224L416 144C415.96 100.76 391.06 61.39 352 42.83C312.94 61.39 288.04 100.76 288 144ZM394.55 32.14C428.35 59.43 448 100.55 448 144L448 224L512 224L512 144C511.93 82.17 461.83 32.07 400 32C398.17 32 396.35 32.05 394.55 32.14ZM544.81 256L554.41 448L588.21 448L576.91 256L544.81 256ZM640.77 256L608.97 256L620.27 448L650.38 448L640.77 256ZM801.28 480L828.4 832.56L863.52 779.89L833.52 480L801.28 480ZM897.18 480L865.68 480L895.52 778.44L923.35 820.18L897.18 480ZM845.9 864L914.1 864L880 812.84L845.9 864ZM417.28 864L798.72 864L769.18 480L446.82 480L417.28 864ZM704 560L704 688C703.95 732.16 668.16 767.95 624 768L592 768C547.84 767.95 512.05 732.16 512 688L512 560C512 551.16 519.16 544 528 544C536.84 544 544 551.16 544 560L544 688C544.03 714.5 565.5 735.97 592 736L624 736C650.5 735.97 671.97 714.5 672 688L672 560C672 551.16 679.16 544 688 544C696.84 544 704 551.16 704 560Z" />
	</g>
</svg>