<svg xmlns="http://www.w3.org/2000/svg" viewBox="0 0 960 736"><g>
		<path id="Path 1" fill-rule="evenodd" class="shp0" d="M892.66 283.74C1001.09 423.22 975.93 624.19 836.45 732.63C833.64 734.81 830.18 736 826.62 736L453.38 736C449.82 736 446.36 734.81 443.55 732.63C401.37 699.8 368.05 656.96 346.63 608L224 608L224 720C224 728.84 216.84 736 208 736L144 736C135.16 736 128 728.84 128 720L128 672L80 672C71.16 672 64 664.84 64 656L64 608L16 608C7.16 608 0 600.84 0 592L0 496C0 487.16 7.16 480 16 480L64 480L64 432C64 423.16 71.16 416 80 416L128 416L128 368C128 359.16 135.16 352 144 352L208 352C216.84 352 224 359.16 224 368L224 480L320 480C320.04 372.41 374.14 272.05 464 212.89L464 16C464 7.16 471.16 0 480 0L800 0C808.84 0 816 7.16 816 16L816 212.89C845.26 232.15 871.16 256.08 892.66 283.74ZM928 480C928 321.2 798.8 192 640 192C481.2 192 352 321.2 352 480L576 480L576 368C576 359.16 583.16 352 592 352L656 352C664.84 352 672 359.16 672 368L672 416L720 416C728.84 416 736 423.16 736 432L736 480L784 480C792.84 480 800 487.16 800 496L800 592C800 600.84 792.84 608 784 608L736 608L736 656C736 664.84 728.84 672 720 672L672 672L672 704L821.04 704C888.89 649.48 928.26 567.04 928 480ZM458.96 704L576 704L576 608L381.97 608C400.44 645.16 426.7 677.9 458.96 704ZM640 384L608 384L608 704L640 704L640 384ZM672 640L704 640L704 448L672 448L672 640ZM224 576L576 576L576 512L224 512L224 576ZM496 194.29C506.4 189.02 517.08 184.33 528 180.24L528 80C528 71.16 535.16 64 544 64L736 64C744.84 64 752 71.16 752 80L752 180.24C762.92 184.33 773.6 189.02 784 194.29L784 32L496 32L496 194.29ZM720 96L560 96L560 170.12C612.48 156.63 667.52 156.63 720 170.12L720 96ZM192 384L160 384L160 704L192 704L192 384ZM96 640L128 640L128 448L96 448L96 640ZM32 576L64 576L64 512L32 512L32 576ZM736 576L768 576L768 512L736 512L736 576Z" />
	</g>
</svg>