<svg xmlns="http://www.w3.org/2000/svg" width="25" height="15" viewBox="0 0 25 15">
  <defs>
    <style>
      .cls-1 {
        fill-rule: evenodd;
      }
    </style>
  </defs>
  <path id="arrow_copy_3" data-name="arrow copy 3" class="cls-1" d="M278,380h2v1h-2v-1Zm1,1h2v1h-2v-1Zm1,1h2v1h-2v-1Zm1,1h2v1h-2v-1Zm1,1h2v1h-2v-1Zm1,1h2v1h-2v-1Zm1,1h2v1h-2v-1Zm1,1h2v1h-2v-1Zm1,1h2v1h-2v-1Zm1,1h2v1h-2v-1Zm1,1h2v1h-2v-1Zm10-10h2v1h-2v-1Zm-1,1h2v1h-2v-1Zm-1,1h2v1h-2v-1Zm-1,1h2v1h-2v-1Zm-1,1h2v1h-2v-1Zm-1,1h2v1h-2v-1Zm-1,1h2v1h-2v-1Zm-1,1h2v1h-2v-1Zm-1,1h2v1h-2v-1Zm-1,1h2v1h-2v-1Zm-1,1h2v1h-2v-1Z" transform="translate(-276.5 -378)"/>
</svg>
