<svg xmlns="http://www.w3.org/2000/svg" viewBox="0 0 916 1022" ><g>
		<path id="Path 1" fill-rule="evenodd" class="shp0" d="M916.43 821.24C916.2 825.54 914.18 829.53 910.86 832.25C909.2 833.6 872.47 863.34 808.94 896.59C808.94 896.59 808.96 896.61 808.98 896.63C811.56 899.89 812.67 904.06 812.08 908.18C811.5 912.28 809.27 915.97 805.88 918.38C799.96 922.62 658.69 1022 458.23 1022C387.36 1022 315.93 1009.48 245.95 984.81C238.05 982.01 233.89 973.32 236.67 965.42C239.46 957.5 248.13 953.35 256.05 956.14C322.78 979.68 390.8 991.62 458.23 991.62C615 991.62 735.97 926.18 774.91 902.28C651.25 740.01 554.51 516.98 553.52 514.69C550.2 506.99 553.73 498.06 561.45 494.74C569.15 491.41 578.11 494.96 581.41 502.68C582.36 504.86 673.13 714.06 790.22 872.05C831.75 850.66 862.08 830.38 878.24 818.77C733.02 669.03 615.95 468.26 592.14 426.27L324.28 426.27C300.5 468.26 183.43 669.03 38.2 818.77C54.41 830.41 84.79 850.7 126.22 872.05C243.29 714.06 334.06 504.86 335.01 502.68C338.34 494.96 347.27 491.41 354.99 494.74C362.69 498.06 366.23 506.99 362.91 514.69C361.94 516.98 265.19 740.04 141.52 902.3C153.78 909.84 174.11 921.5 200.99 933.86C208.61 937.36 211.95 946.38 208.45 954.02C205.89 959.57 200.39 962.87 194.63 962.87C192.5 962.87 190.36 962.41 188.29 961.47C139.77 939.17 111.72 919.23 110.55 918.38C107.18 915.97 104.93 912.28 104.35 908.18C103.76 904.06 104.89 899.89 107.47 896.63C107.47 896.61 107.48 896.59 107.51 896.59C43.96 863.34 7.23 833.6 5.57 832.25C2.24 829.53 0.22 825.54 0.02 821.24C-0.21 816.96 1.39 812.78 4.43 809.74C158.59 655.62 283.58 436.78 300.19 407.14L300.19 340.21C300.19 293.09 265.86 163.22 265.51 161.93C264.72 158.95 264.85 155.83 265.88 152.94C272.5 134.29 283.36 120.32 298.23 111.14C299.61 90.05 307.39 39.2 348.97 3.66C352.38 0.74 356.92 -0.54 361.33 0.21C365.77 0.94 369.63 3.59 371.93 7.46C373.24 9.67 402.09 58.94 406.2 108.89C408.53 109.64 410.86 110.39 413.21 111.22C432.8 117.96 449.17 125.81 458.23 130.46C467.26 125.81 483.64 117.96 503.22 111.22C505.59 110.39 507.92 109.64 510.23 108.89C514.34 58.94 543.2 9.67 544.52 7.46C546.81 3.59 550.68 0.94 555.09 0.21C559.53 -0.54 564.05 0.74 567.47 3.66C609.04 39.2 616.82 90.03 618.22 111.14C633.09 120.32 643.94 134.29 650.57 152.94C651.6 155.83 651.72 158.95 650.95 161.93C650.87 162.17 644.47 186.34 637.24 217.37C635.33 225.53 627.17 230.62 618.99 228.72C610.83 226.81 605.74 218.65 607.64 210.46C613.07 187.15 618.05 167.62 620.32 158.95C614.73 145.98 606.04 137.43 593.87 132.9C554.63 118.33 488.08 148.17 465.73 160.9C461.08 163.55 455.35 163.55 450.69 160.9C428.36 148.17 361.82 118.35 322.6 132.9C310.41 137.43 301.71 145.96 296.15 158.95C301.95 181.31 325.31 273.34 329.81 325.02L586.59 325.02C587.81 310.88 590.52 292.77 594.84 270.21C596.42 261.96 604.36 256.55 612.6 258.13C620.85 259.69 626.26 267.65 624.68 275.9C619.09 305.25 616.25 326.88 616.25 340.21L616.25 407.14C632.85 436.78 757.84 655.62 911.99 809.74C915.03 812.78 916.63 816.96 916.43 821.24ZM330.17 99.84C343.44 97.83 358.31 98.24 374.66 101.05C371.01 78.28 362.06 55.9 355.05 40.97C339.29 60.87 332.83 83.81 330.17 99.84ZM541.79 101.05C558.13 98.24 573 97.83 586.27 99.84C583.61 83.81 577.13 60.87 561.39 40.97C554.38 55.9 545.42 78.28 541.79 101.05ZM585.87 355.41L330.58 355.41L330.58 395.88L585.87 395.88L585.87 355.41Z" />
	</g>
</svg>