<svg xmlns="http://www.w3.org/2000/svg" viewBox="0 0 999 1024">
	<g id="Page 1" clip-path="url(#cp1)">
		<path id="Path 1" class="shp0" d="M412.74 411.44C404.46 411.44 397.74 418.15 397.74 426.44L397.74 439.85C397.74 448.13 404.46 454.85 412.74 454.85C421.03 454.85 427.74 448.13 427.74 439.85L427.74 426.44C427.74 418.15 421.03 411.44 412.74 411.44ZM585.93 411.44C577.65 411.44 570.93 418.15 570.93 426.44L570.93 439.85C570.93 448.13 577.65 454.85 585.93 454.85C594.22 454.85 600.93 448.13 600.93 439.85L600.93 426.44C600.93 418.15 594.22 411.44 585.93 411.44ZM545.74 470.04C539.5 464.59 530.02 465.22 524.57 471.46C518.44 478.47 509.25 482.49 499.34 482.49C489.43 482.49 480.23 478.47 474.1 471.46C468.65 465.22 459.18 464.59 452.94 470.04C446.7 475.49 446.06 484.97 451.52 491.2C463.34 504.73 480.77 512.49 499.34 512.49C517.9 512.49 535.33 504.74 547.16 491.21C552.61 484.97 551.97 475.49 545.74 470.04ZM477.28 434.61C477.28 444.03 487.15 451.68 499.34 451.68C511.52 451.68 521.4 444.03 521.4 434.61C521.4 425.18 477.28 425.18 477.28 434.61Z" />
		<path id="Path 2" fill-rule="evenodd" class="shp0" d="M982.79 338.82L920.04 407.82C901.35 428.37 870.21 433.76 845.69 420.68L805.21 399.08C811.45 423.46 819.69 459.8 826.81 504.87C828.1 513.06 822.52 520.74 814.34 522.03C806.16 523.32 798.47 517.74 797.18 509.55C784.24 427.63 767.72 376.11 767.02 373.96C762.95 361.41 776.68 349.87 788.34 356.09C788.39 356.12 815.51 370.58 815.51 370.58L937.3 236.67L886.88 153.2C870 125.26 843.91 103.44 813.44 91.77L718.79 55.52C712.65 68.57 705.31 81.12 696.96 92.88C669.43 131.67 630.24 161.86 585.83 178.83C535.33 198.12 478.68 199.88 427.07 183.79C403.95 176.59 381.93 165.89 361.68 151.89C338.99 136.22 319.04 116.69 302.88 94.34C300.68 91.29 278.99 55.88 279.89 55.52C279.63 55.62 185.24 91.77 185.24 91.77C154.76 103.44 128.68 125.26 111.79 153.21L61.36 236.67L183.15 370.58L210.32 356.09C221.98 349.88 235.73 361.37 231.65 373.95C229.69 380 183.93 523.57 186.06 719.06C186.15 727.35 179.51 734.14 171.23 734.22L171.06 734.22C162.85 734.22 156.16 727.62 156.07 719.39C154.47 573.2 179.18 454.83 193.44 399.09L186.98 402.54C186.97 402.54 152.98 420.68 152.98 420.68C128.49 433.75 97.31 428.35 78.63 407.81C78.62 407.8 15.89 338.83 15.89 338.83C-2.26 318.86 -5.18 288.81 8.77 265.73L29.9 230.73C29.9 230.73 86.11 137.69 86.11 137.69C106.44 104.06 137.83 77.8 174.51 63.75L282.56 22.37L335.6 2.07C350.4 -3.6 367.73 2.84 375.09 16.93C399.41 63.45 447.02 92.36 499.34 92.36C551.66 92.36 599.27 63.45 623.58 16.93C630.96 2.81 648.22 -3.63 663.08 2.06C663.16 2.1 824.17 63.75 824.17 63.75C860.85 77.8 892.24 104.06 912.56 137.69L968.77 230.73C968.77 230.73 989.91 265.75 989.91 265.75C1003.85 288.81 1000.93 318.86 982.79 338.82ZM279.89 55.52C279.89 55.52 279.89 55.52 279.89 55.52C279.89 55.52 279.89 55.52 279.89 55.52ZM690.67 44.76L652.35 30.08C651.63 29.81 650.65 29.91 650.17 30.82C620.67 87.28 562.87 122.36 499.34 122.36C435.8 122.36 378.01 87.28 348.5 30.82C348.03 29.9 347.05 29.81 346.33 30.08L308 44.76C308.04 44.83 308.07 44.91 308.11 44.98C312.23 53.35 316.8 61.49 321.94 69.27C336.94 91.96 356.35 111.75 378.73 127.21C414.27 151.76 455.97 164.73 499.34 164.73C566.03 164.73 629.98 132.32 669.61 79.42C677.65 68.69 684.72 57.06 690.57 44.98C690.61 44.91 690.64 44.83 690.67 44.76ZM45.19 263.47L34.46 281.25C27.2 293.25 28.66 308.27 38.09 318.64L100.83 387.63C110.46 398.22 126.51 400.8 138.86 394.21C138.86 394.21 155.85 385.14 155.85 385.14L45.19 263.47ZM964.23 281.26L953.49 263.47L842.82 385.14L859.82 394.21C872.33 400.89 888.3 398.13 897.85 387.63C897.87 387.61 960.59 318.64 960.59 318.64C970.01 308.27 971.48 293.25 964.23 281.26Z" />
		<path id="Path 3" fill-rule="evenodd" class="shp0" d="M819.3 939.66C819.3 939.66 819.3 939.67 819.3 939.67C817.95 946.17 816.45 953.01 814.73 960.59C813.44 966.16 812.12 971.68 810.76 977.23C803.95 1004.78 779.42 1024 751.09 1024L648.93 1024C622.18 1024 598.69 1006.9 590.49 981.45L546.78 845.93C544.03 837.41 536.16 831.68 527.2 831.68L471.47 831.68C462.51 831.68 454.64 837.41 451.89 845.93L408.19 981.44C399.98 1006.9 376.49 1024 349.74 1024L247.58 1024C219.26 1024 194.72 1004.78 187.92 977.26C184.92 965.09 182.04 952.44 179.38 939.68C179.38 939.68 179.38 939.68 179.38 939.68C168.71 888.35 161.6 834.67 158.26 780.14C157.76 771.87 164.05 764.76 172.32 764.26C180.61 763.75 187.7 770.04 188.21 778.31C191.2 827.19 197.29 875.33 206.34 921.61L395.96 921.61L423.34 836.72C430.1 815.76 449.45 801.67 471.47 801.67L527.2 801.67C549.23 801.67 568.58 815.76 575.34 836.72L602.72 921.61L792.34 921.61C814.25 809.73 818.55 691.12 805.11 568.85C804.21 560.62 810.15 553.21 818.38 552.3C826.62 551.4 834.03 557.34 834.93 565.58C849.19 695.34 843.93 821.19 819.3 939.66ZM386.28 951.62L212.68 951.62C214.09 957.86 215.55 964.02 217.04 970.07C220.52 984.15 233.08 994 247.58 994L349.74 994C363.42 994 375.43 985.25 379.63 972.24L386.28 951.62ZM785.49 953.88C785.66 953.12 785.83 952.37 786 951.62L612.39 951.62L619.04 972.24C623.23 985.25 635.25 994 648.93 994L751.09 994C765.59 994 778.15 984.15 781.63 970.06C782.95 964.67 784.24 959.27 785.49 953.88Z" />
		<path id="Path 4" fill-rule="evenodd" class="shp0" d="M674.1 414.05C677.13 425.64 678.74 437.72 678.74 450.12C678.74 537.93 598.26 609.37 499.34 609.37C400.41 609.37 319.93 537.93 319.93 450.12C319.93 437.72 321.54 425.64 324.58 414.05C307.92 399.72 298.23 378.97 298.23 356.55C298.23 314.64 332.32 280.54 374.23 280.54C394.96 280.54 414.6 289.04 428.81 303.71C450.47 295.46 474.31 290.88 499.34 290.88C524.36 290.88 548.2 295.46 569.86 303.71C584.07 289.04 603.71 280.54 624.44 280.54C666.35 280.54 700.45 314.63 700.45 356.55C700.45 378.97 690.76 399.72 674.1 414.05ZM648.74 450.12C648.74 431 643.72 412.02 634.57 395.24C634.52 395.17 634.49 395.09 634.44 395.02C608.09 346.97 552.86 320.88 499.34 320.88C474.3 320.88 450.69 326.26 429.94 335.72C385.05 356.19 349.93 399.29 349.93 450.12C349.93 521.39 416.96 579.37 499.34 579.37C581.72 579.37 648.74 521.39 648.74 450.12ZM336.61 383.06C345.02 367.07 356.31 352.62 369.51 340.33C378.49 331.96 388.45 324.45 399.28 317.97C391.91 313.19 383.24 310.54 374.23 310.54C348.87 310.54 328.23 331.18 328.23 356.55C328.23 366.24 331.22 375.43 336.61 383.06ZM670.45 356.54C670.45 331.18 649.81 310.54 624.44 310.54C615.44 310.54 606.76 313.19 599.4 317.97C613.69 326.52 626.47 336.86 637.41 348.55C646.47 358.24 654.38 369.02 660.76 380.66C660.89 380.91 661.77 382.5 662.07 383.06C667.46 375.43 670.45 366.24 670.45 356.54Z" />
	</g>
</svg>