<svg xmlns="http://www.w3.org/2000/svg" viewBox="0 0 955 955"><g>
		<path id="Path 1" fill-rule="evenodd" class="shp0" d="M587.35 477.39C587.35 538 538.21 587.13 477.61 587.13C417 587.13 367.87 538 367.87 477.39C367.87 416.79 417 367.65 477.61 367.65C538.19 367.72 587.28 416.81 587.35 477.39ZM563.35 477.39C563.35 430.04 524.96 391.65 477.61 391.65C430.25 391.65 391.87 430.04 391.87 477.39C391.87 524.75 430.25 563.13 477.61 563.13C524.94 563.08 563.29 524.72 563.35 477.39ZM440.43 327.96C439.36 321.42 443.79 315.25 450.33 314.17C459.35 312.69 468.47 311.94 477.61 311.93C484.23 311.93 489.61 317.31 489.61 323.93C489.61 330.56 484.23 335.93 477.61 335.93C469.78 335.94 461.97 336.58 454.24 337.85C453.59 337.96 452.93 338.02 452.27 338.02C446.4 338.02 441.38 333.76 440.43 327.96ZM336.15 477.39C336.15 484.02 330.77 489.39 324.15 489.39C317.52 489.39 312.15 484.02 312.15 477.39C312.2 412.13 350.55 352.98 410.1 326.3C416.15 323.59 423.25 326.3 425.96 332.35C428.67 338.41 425.95 345.5 419.9 348.21C368.98 371.02 336.19 421.6 336.15 477.39Z" />
		<path id="Path 2" fill-rule="evenodd" class="shp0" d="M955.21 477.39C955.21 615.48 895.44 746.81 791.31 837.52C592.42 1010.77 290.74 989.99 117.48 791.1C-55.77 592.21 -34.99 290.52 163.9 117.27C362.79 -55.99 664.47 -35.21 837.73 163.68C913.47 250.65 955.2 362.07 955.21 477.39ZM832.44 194.81L810.56 251.67C840.2 295.17 860.93 344.1 871.53 395.66C871.86 397.24 871.86 398.87 871.54 400.46C870.23 406.95 863.91 411.16 857.41 409.85L663.82 370.85C665.66 374.05 667.43 377.29 669.1 380.57C671.86 386.36 669.59 393.29 663.94 396.32C658.11 399.46 650.83 397.26 647.7 391.42C642.27 380.73 635.85 370.56 628.51 361.07C628.33 360.83 628.14 360.59 627.96 360.36C563.42 277.24 443.72 262.19 360.6 326.74C277.49 391.28 262.44 510.98 326.99 594.09C336.85 606.85 348.3 618.29 361.06 628.16C444.25 692.53 563.87 677.27 628.24 594.08C654.24 560.75 668.29 519.66 668.15 477.39C668.15 466.69 667.26 456 665.48 445.44C665.48 445.4 665.47 445.36 665.46 445.32C664.39 438.78 668.83 432.61 675.36 431.54C681.91 430.47 688.08 434.9 689.15 441.44C691.14 453.32 692.15 465.35 692.15 477.39C692.26 514.78 682.49 551.53 663.85 583.94L857.41 544.94C858.99 544.62 860.62 544.62 862.2 544.95C868.69 546.29 872.87 552.63 871.53 559.12C838.34 718.64 712.28 842.43 552.19 872.71C551.46 872.85 550.72 872.92 549.97 872.92C543.35 872.92 537.98 867.54 537.98 860.91L537.98 683.27C498.55 694.82 456.64 694.82 417.22 683.27L417.22 860.91C417.22 861.65 417.15 862.39 417.01 863.13C415.79 869.64 409.52 873.93 403.01 872.71C242.92 842.41 116.87 718.63 83.68 559.12C83.36 557.54 83.35 555.9 83.67 554.32C84.98 547.82 91.31 543.62 97.81 544.93L291.36 583.94C253.63 517.92 253.63 436.87 291.36 370.86L97.8 409.86C96.21 410.18 94.58 410.17 93 409.84C86.51 408.5 82.33 402.16 83.68 395.67C94.28 344.11 115.01 295.17 144.65 251.68L122.78 194.82C-20.97 375.32 -6.3 634.98 156.86 798.13C241.93 883.2 357.3 930.99 477.6 930.99C728.12 930.99 931.2 727.91 931.21 477.39C931.23 374.73 896.4 275.11 832.44 194.81ZM843.89 572.14L644.36 612.34C622.38 639.51 594.11 660.91 561.99 674.68L561.99 846.17C699.71 814.55 808.39 708.91 843.89 572.14ZM787.28 260.15C762.08 224.23 730.81 192.96 694.89 167.76C523.86 47.75 287.92 89.12 167.92 260.15C141.79 297.22 122.61 338.73 111.32 382.65L310.84 342.45C320.31 330.74 330.99 320.06 342.7 310.59C434.8 236.08 569.86 250.35 644.36 342.45L843.9 382.65C832.6 338.73 813.41 297.22 787.28 260.15ZM140.48 173.99L161.51 228.66C181.23 203.59 203.86 180.96 228.93 161.25C403.5 23.9 656.37 54.08 793.71 228.66L814.74 173.99C728.73 78.41 606.19 23.82 477.61 23.79C349.02 23.81 226.49 78.41 140.48 173.99ZM111.32 572.14C146.83 708.91 255.5 814.55 393.23 846.17L393.23 674.67C361.11 660.91 332.84 639.52 310.88 612.36L111.32 572.14Z" />
	</g>
</svg>