<svg xmlns="http://www.w3.org/2000/svg" viewBox="0 0 1024 1007"><g>
		<path id="Path 1" fill-rule="evenodd" class="shp0" d="M1021.14 265.54L884.6 470.34C881.95 474.32 877.75 477 873.02 477.74C868.29 478.47 863.47 477.19 859.74 474.2L802.14 428.12L802.14 989.93C802.14 994.46 800.34 998.8 797.14 1002C793.94 1005.21 789.6 1007 785.07 1007L238.93 1007C234.41 1007 230.07 1005.2 226.87 1002C223.66 998.8 221.87 994.46 221.87 989.93L221.87 428.12L164.27 474.2C160.52 477.17 155.71 478.45 150.99 477.73C146.25 477 142.05 474.32 139.4 470.33L2.87 265.53C-2.11 258.06 -0.45 248.01 6.67 242.53L213.03 83.78C224.98 74.59 238.55 67.75 253.05 63.62L349.47 36.07L380.47 5.07C386.22 -0.69 395.24 -1.59 402 2.93C435.29 22.81 473.23 33.6 512 34.2C550.79 33.71 588.75 22.92 622 2.93C628.77 -1.59 637.79 -0.7 643.53 5.07L674.53 36.07L770.95 63.62C785.44 67.75 799.02 74.59 810.97 83.78L1017.33 242.53C1024.45 248.01 1026.11 258.06 1021.14 265.54ZM768 938.73L256 938.73L256 972.87L768 972.87L768 938.73ZM983.89 259.87L790.17 110.85C781.64 104.29 771.94 99.4 761.59 96.45L660.92 67.69C658.13 66.89 655.59 65.39 653.54 63.34L628.69 38.49C592.74 57.62 552.73 67.86 512 68.34C471.28 67.86 431.27 57.62 395.32 38.49L370.47 63.34C368.42 65.39 365.88 66.89 363.09 67.69L262.42 96.45C252.07 99.4 242.37 104.28 233.84 110.85L40.12 259.87L157.47 435.92L190.09 409.82L105.27 282.6C100.15 274.76 102.3 264.27 110.09 259.07C117.88 253.88 128.4 255.93 133.67 263.67L216.84 388.41L228.27 379.27C233.39 375.17 240.41 374.37 246.33 377.22C252.24 380.06 256 386.04 256 392.6L256 904.6L768 904.6L768 392.6C768 386.04 771.76 380.06 777.67 377.21C783.59 374.37 790.61 375.17 795.74 379.27L807.16 388.41L890.33 263.67C895.58 255.88 906.14 253.79 913.96 259C921.77 264.21 923.91 274.76 918.74 282.6L833.91 409.82L866.53 435.92L983.89 259.87Z" />
	</g>
</svg>