<svg xmlns="http://www.w3.org/2000/svg" viewBox="0 0 1024 996" ><g>
		<path id="Path 1" fill-rule="evenodd" class="shp0" d="M1024 705.88C1024 763.57 974.12 883.02 972 888.07C971.02 890.4 969.48 892.45 967.51 894.03C885.92 959.69 698.94 996 600.9 996C497.29 996 476.9 925.8 463.41 879.34C462.02 874.58 460.72 870.08 459.38 865.8C459.29 865.49 459.2 865.2 459.13 864.89C426.54 732.49 385.44 627.57 336.98 553.05C302.19 499.55 264.53 462.79 225.05 443.79C215.41 439.15 204.63 439.74 195.49 445.42C186.36 451.09 180.84 460.88 180.73 471.61L175.34 980.95C175.24 989.29 168.46 996 160.12 996L100.37 996C92.34 996 85.7 989.77 85.19 981.75C84.98 978.45 64.18 650.09 56.8 525.98C53.51 470.81 42.07 444.87 29.96 417.41C15.23 384.01 0 349.48 0 266.61C0 202.22 29.82 136.06 86.23 75.28C128.2 30.07 169.73 3.8 171.47 2.71C178.45 -1.66 187.63 0.3 192.2 7.15C192.2 7.15 229.41 62.85 276.23 133.03C280.9 140.01 279.01 149.46 272.02 154.12C265.04 158.79 255.59 156.9 250.93 149.91C217.56 99.9 189.08 57.23 175.47 36.85C160.59 47.6 134.15 68.27 108.02 96.52C72.62 134.8 30.41 195.37 30.41 266.61C30.41 343.08 43.71 373.23 57.79 405.14C70.45 433.85 83.55 463.55 87.16 524.17C92.27 609.99 103.8 793.54 110.48 899.63L145.78 899.63L150.31 471.28C150.55 450.1 161.43 430.77 179.44 419.59C197.34 408.47 219.32 407.27 238.24 416.37C310.82 451.3 412.37 554.62 486.19 847.75C550 856.6 688.02 859.77 822.65 832.66C830.9 831 838.9 836.34 840.55 844.56C842.21 852.8 836.88 860.82 828.65 862.48C751.38 878.04 666.72 884.52 594.77 884.52C557.12 884.52 522.98 882.74 495.16 879.56C508.15 923.23 525.16 965.59 600.9 965.59C695.31 965.59 870.34 930.3 945.44 872.7C948.64 864.86 956.57 845.05 965.1 821.02C942.19 831.16 916.69 840.2 888.89 848.05C887.51 848.44 886.12 848.63 884.75 848.63C878.11 848.63 872.02 844.25 870.12 837.55C867.84 829.46 872.55 821.05 880.63 818.77C918.09 808.21 950.96 795.45 978.43 780.8C986.9 752.94 993.59 724.91 993.59 705.88C993.59 680.15 992.66 660.84 980.69 646.53C966.84 629.97 937.56 618.95 888.58 611.85C827.91 603.08 787.06 590.91 763.37 579.94C761.77 584.27 759.59 588.88 756.62 593.56C737.23 624.13 700.14 633.43 672.44 635.86C630.96 639.52 582.67 611.4 528.94 552.31C485.04 504.04 447.35 446.07 431.26 421.32C410.84 389.93 337.77 280.17 284.57 200.34C279.91 193.35 281.8 183.91 288.79 179.25C295.78 174.59 305.22 176.48 309.87 183.48C363.12 263.37 436.26 373.22 456.76 404.74C472.45 428.87 509.2 485.4 551.44 531.85C597.78 582.8 638.7 608.29 669.78 605.56C699.71 602.94 720.85 593.16 730.92 577.27C737.57 566.8 737.37 556.8 737.37 556.7C736.95 550.2 740.37 543.8 746.39 541.3C752.33 538.85 758.84 540.04 763.13 544.77C765.68 546.8 793.78 567.41 892.94 581.75C950.55 590.09 984.8 604.05 1004.02 627.02C1022.5 649.09 1024 675.79 1024 705.88ZM145.08 965.59L145.45 930.05L112.4 930.05C113.34 944.88 114.11 957.02 114.65 965.59L145.08 965.59Z" />
	</g>
</svg>