<svg xmlns="http://www.w3.org/2000/svg" viewBox="0 0 580 1024" ><g>
		<path id="Path 1" fill-rule="evenodd" class="shp0" d="M392.53 85.33C392.53 94.75 384.89 102.4 375.47 102.4L204.8 102.4C195.38 102.4 187.74 94.75 187.74 85.33C187.74 75.91 195.38 68.27 204.8 68.27L375.47 68.27C384.89 68.27 392.53 75.91 392.53 85.33ZM512 85.33C512 94.75 504.35 102.4 494.93 102.4L477.87 102.4C468.45 102.4 460.8 94.75 460.8 85.33C460.8 75.91 468.45 68.27 477.87 68.27L494.93 68.27C504.35 68.27 512 75.91 512 85.33ZM358.4 917.49L358.4 925.71C358.4 951.67 337.27 972.8 311.31 972.8L268.94 972.8C243 972.8 221.87 951.67 221.87 925.71L221.87 917.49C221.87 891.53 243 870.4 268.95 870.4L311.33 870.4C337.27 870.4 358.4 891.53 358.4 917.49ZM324.27 917.49C324.27 910.34 318.47 904.53 311.31 904.53L268.95 904.53C261.8 904.53 256 910.34 256 917.49L256 925.71C256 932.86 261.8 938.67 268.95 938.67L311.33 938.67C318.47 938.67 324.27 932.86 324.27 925.71L324.27 917.49Z" />
		<path id="Path 2" fill-rule="evenodd" class="shp0" d="M580.27 61.7L580.27 962.32C580.27 996.32 552.58 1024 518.57 1024L61.7 1024C27.68 1024 0 996.32 0 962.3L0 61.7C0 27.68 27.68 0 61.7 0L518.59 0C552.59 0 580.27 27.68 580.27 61.7ZM546.13 962.3L546.13 61.7C546.13 46.51 533.78 34.13 518.57 34.13L61.7 34.13C46.49 34.13 34.13 46.51 34.13 61.7L34.13 962.32C34.13 977.49 46.49 989.86 61.7 989.86L518.59 989.86C533.78 989.86 546.13 977.49 546.13 962.3L546.13 962.3ZM153.6 136.53C153.6 145.95 145.95 153.6 136.53 153.6L102.4 153.6L102.4 187.73C102.4 197.15 94.75 204.8 85.33 204.8C75.91 204.8 68.27 197.15 68.27 187.73L68.27 136.53C68.27 127.11 75.91 119.47 85.33 119.47L136.53 119.47C145.95 119.47 153.6 127.11 153.6 136.53ZM512 802.13L512 853.33C512 862.75 504.35 870.4 494.93 870.4L443.73 870.4C434.31 870.4 426.67 862.75 426.67 853.33C426.67 843.91 434.31 836.27 443.73 836.27L477.87 836.27L477.87 802.13C477.87 792.71 485.51 785.07 494.93 785.07C504.35 785.07 512 792.71 512 802.13Z" />
	</g>
</svg>