<svg xmlns="http://www.w3.org/2000/svg" viewBox="0 0 1024 1024"><g>
		<path id="Path 1" fill-rule="evenodd" class="shp0" d="M1024 68.28L1024 597.33C1024 606.77 1016.35 614.4 1006.93 614.4L17.07 614.4C7.65 614.4 0 606.77 0 597.33L0 68.28C0 30.63 30.63 0 68.28 0L955.72 0C993.37 0 1024 30.63 1024 68.28ZM989.87 68.28C989.87 49.44 974.54 34.13 955.72 34.13L68.28 34.13C49.46 34.13 34.13 49.44 34.13 68.28L34.13 580.27L989.87 580.27L989.87 68.28Z" />
		<path id="Path 2" fill-rule="evenodd" class="shp0" d="M1024 597.33L1024 750.92C1024 788.57 993.37 819.2 955.72 819.2L68.28 819.2C30.63 819.2 0 788.57 0 750.91L0 597.33C0 587.89 7.65 580.27 17.07 580.27L1006.93 580.27C1016.35 580.27 1024 587.9 1024 597.33ZM989.87 750.92L989.87 614.4L34.13 614.4L34.13 750.92C34.13 769.76 49.46 785.07 68.28 785.07L955.72 785.07C974.54 785.07 989.87 769.76 989.87 750.92L989.87 750.92Z" />
		<path id="Path 3" fill-rule="evenodd" class="shp0" d="M955.73 85.33L955.73 597.33C955.73 606.77 948.09 614.4 938.67 614.4L85.33 614.4C75.91 614.4 68.27 606.77 68.27 597.33L68.27 85.33C68.27 75.89 75.91 68.27 85.33 68.27L938.67 68.27C948.09 68.27 955.73 75.9 955.73 85.33ZM921.6 102.4L102.4 102.4L102.4 580.27L921.6 580.27L921.6 102.4ZM785.07 972.77L785.07 1006.93C785.07 1016.37 777.42 1024 768 1024L256 1024C246.58 1024 238.93 1016.37 238.93 1006.93L238.93 972.77C238.93 944.56 261.89 921.6 290.1 921.6L733.9 921.6C762.11 921.6 785.07 944.56 785.07 972.77ZM750.93 989.87L750.93 972.77C750.93 963.36 743.29 955.74 733.9 955.74L290.1 955.74C280.71 955.74 273.07 963.36 273.07 972.77L273.07 989.87L750.93 989.87Z" />
		<path id="Path 4" fill-rule="evenodd" class="shp0" d="M716.8 938.67C716.8 948.1 709.15 955.73 699.73 955.73L324.27 955.73C314.85 955.73 307.2 948.1 307.2 938.67C307.2 929.23 314.85 921.6 324.27 921.6C380.9 921.6 409.6 881.41 409.6 802.14C409.6 792.7 417.25 785.07 426.67 785.07L597.33 785.07C606.75 785.07 614.4 792.7 614.4 802.14C614.4 881.41 643.11 921.6 699.73 921.6C709.15 921.6 716.8 929.23 716.8 938.67ZM616.62 921.6C595.59 898.34 583.22 863.66 580.74 819.2L443.27 819.2C440.78 863.66 428.41 898.34 407.4 921.6L616.62 921.6ZM563.2 733.86C563.2 743.3 555.55 750.93 546.13 750.93L477.87 750.93C468.45 750.93 460.8 743.3 460.8 733.86L460.8 665.6C460.8 656.16 468.45 648.53 477.87 648.53L546.13 648.53C555.55 648.53 563.2 656.16 563.2 665.6C563.2 675.04 555.55 682.67 546.13 682.67L494.93 682.67L494.93 716.8L546.13 716.8C555.55 716.8 563.2 724.43 563.2 733.86ZM233.93 165.67L165.67 233.93C162.34 237.26 157.97 238.93 153.6 238.93C149.23 238.93 144.86 237.26 141.53 233.93C134.86 227.26 134.86 216.47 141.53 209.8L209.8 141.53C216.46 134.86 227.28 134.86 233.93 141.53C240.61 148.21 240.61 158.99 233.93 165.67ZM353.4 268.07L285.13 336.33C281.8 339.66 277.44 341.33 273.07 341.33C268.7 341.33 264.33 339.66 261 336.33C254.33 329.66 254.33 318.87 261 312.2L329.27 243.93C335.92 237.26 346.74 237.26 353.4 243.93C360.07 250.61 360.07 261.39 353.4 268.07ZM336.33 165.67L165.67 336.33C162.34 339.66 157.97 341.33 153.6 341.33C149.23 341.33 144.86 339.66 141.53 336.33C134.86 329.66 134.86 318.87 141.53 312.2L312.2 141.53C318.86 134.86 329.68 134.86 336.33 141.53C343.01 148.21 343.01 158.99 336.33 165.67Z" />
	</g>
</svg>