<svg xmlns="http://www.w3.org/2000/svg" viewBox="0 0 683 1024"><g>
		<path id="Path 1" fill-rule="evenodd" class="shp0" d="M614.4 512C614.4 681.39 476.59 819.2 307.2 819.2C137.81 819.2 0 681.39 0 512C0 342.61 137.81 204.8 307.2 204.8C476.59 204.8 614.4 342.61 614.4 512ZM580.27 512C580.27 361.44 457.78 238.93 307.2 238.93C156.62 238.93 34.13 361.44 34.13 512C34.13 662.56 156.62 785.07 307.2 785.07C457.78 785.07 580.27 662.56 580.27 512Z" />
		<path id="Path 2" fill-rule="evenodd" class="shp0" d="M546.13 512C546.13 643.75 438.95 750.93 307.2 750.93C175.44 750.93 68.27 643.76 68.27 512C68.27 380.24 175.45 273.07 307.2 273.07C438.95 273.07 546.13 380.25 546.13 512ZM512 512C512 399.07 420.13 307.2 307.2 307.2C194.27 307.2 102.4 399.07 102.4 512C102.4 624.93 194.27 716.8 307.2 716.8C420.13 716.8 512 624.93 512 512Z" />
		<path id="Path 3" fill-rule="evenodd" class="shp0" d="M477.87 757.81L477.87 853.33C477.87 861.34 472.32 868.25 464.51 870.01C413.05 881.42 360.13 887.14 307.2 887.14C254.28 887.14 201.35 881.42 149.9 869.99C142.08 868.25 136.53 861.34 136.53 853.33L136.53 757.81C136.53 751.62 139.91 745.9 145.34 742.88C150.77 739.87 157.41 740.04 162.66 743.34C206.23 770.64 256.22 785.07 307.2 785.07C358.18 785.07 408.17 770.65 451.74 743.36C457.01 740.08 463.65 739.91 469.06 742.9C474.49 745.9 477.87 751.62 477.87 757.81ZM443.73 786.93C358.85 829.28 255.56 829.28 170.67 786.93L170.67 839.49C260.28 857.53 354.11 857.53 443.73 839.49L443.73 786.93Z" />
		<path id="Path 4" fill-rule="evenodd" class="shp0" d="M443.73 859.96L443.73 1006.93C443.73 1016.37 436.09 1024 426.67 1024L187.73 1024C178.31 1024 170.67 1016.37 170.67 1006.93L170.67 859.96C170.67 854.92 172.88 850.16 176.72 846.9C180.58 843.67 185.65 842.27 190.6 843.13C267.96 856.35 346.42 856.35 423.78 843.13C428.73 842.24 433.82 843.64 437.66 846.9C441.52 850.14 443.73 854.92 443.73 859.96ZM409.6 879.91C341.56 889.64 272.84 889.64 204.8 879.91L204.8 989.87L409.6 989.87L409.6 879.91ZM477.86 170.67L477.86 266.19C477.86 272.38 474.49 278.1 469.06 281.12C466.48 282.54 463.65 283.26 460.8 283.26C457.64 283.26 454.5 282.39 451.74 280.66C408.17 253.36 358.18 238.93 307.2 238.93C256.22 238.93 206.23 253.35 162.66 280.64C157.41 283.94 150.77 284.11 145.34 281.1C139.91 278.1 136.53 272.38 136.53 266.19L136.53 170.67C136.53 162.66 142.08 155.75 149.9 153.99C252.81 131.12 361.59 131.12 464.5 153.99C472.32 155.75 477.87 162.66 477.86 170.67ZM443.73 237.07C443.73 237.07 443.73 237.07 443.73 237.07L443.73 237.07L443.73 237.07ZM443.73 237.07L443.73 184.51C354.11 166.47 260.28 166.47 170.67 184.51L170.67 237.07C213.11 215.88 259.75 204.8 307.2 204.8C354.65 204.8 401.29 215.88 443.73 237.07Z" />
		<path id="Path 5" fill-rule="evenodd" class="shp0" d="M443.73 17.07L443.73 164.04C443.73 169.08 441.52 173.84 437.68 177.1C434.57 179.71 430.66 181.11 426.67 181.11C425.71 181.11 424.74 181.02 423.78 180.85C346.42 167.63 267.97 167.63 190.6 180.85C185.63 181.71 180.57 180.32 176.73 177.08C172.89 173.86 170.67 169.08 170.67 164.04L170.67 17.07C170.67 7.63 178.31 0 187.73 0L426.67 0C436.09 0 443.73 7.63 443.73 17.07ZM409.6 34.13L204.8 34.13L204.8 144.09C238.83 139.23 273.02 136.81 307.2 136.81C341.38 136.81 375.57 139.25 409.6 144.11L409.6 34.13ZM682.67 512C682.67 540.23 659.69 563.2 631.47 563.2L595.15 563.2C590.28 563.2 585.64 561.12 582.4 557.48C579.16 553.83 577.64 548.99 578.2 544.16C579.59 532.31 580.27 521.8 580.27 512C580.27 502.21 579.59 491.69 578.2 479.85C577.64 475.02 579.16 470.17 582.4 466.52C585.64 462.88 590.28 460.8 595.15 460.8L631.47 460.8C659.69 460.8 682.67 483.77 682.67 512ZM648.53 512C648.53 502.58 640.89 494.93 631.47 494.93L613.85 494.93C614.21 500.84 614.4 506.51 614.4 512C614.4 517.49 614.21 523.16 613.85 529.07L631.47 529.07C640.89 529.07 648.53 521.42 648.53 512ZM477.87 529.06C477.87 538.5 470.22 546.13 460.8 546.13L426.67 546.13C420.2 546.13 414.3 542.48 411.39 536.69L406.68 527.25L372.06 573.44C368.16 578.64 361.71 581.12 355.3 579.99C348.93 578.81 343.76 574.12 341.98 567.89L322.07 498.19L289.04 586.27C286.65 592.62 280.73 596.96 273.96 597.31C273.67 597.33 273.36 597.33 273.07 597.33C266.63 597.33 260.71 593.7 257.81 587.89L219.77 511.79L201.95 538.52C198.76 543.28 193.43 546.13 187.73 546.13L153.6 546.13C144.18 546.13 136.54 538.5 136.54 529.07C136.54 519.63 144.18 512 153.6 512L178.6 512L207.66 468.39C211.04 463.32 216.83 460.52 222.92 460.83C229 461.21 234.41 464.79 237.12 470.24L270.81 537.63L308.27 437.72C310.85 430.85 317.46 426.05 324.95 426.68C332.3 426.99 338.65 431.97 340.67 439.06L365.36 525.46L395.94 484.69C399.5 479.95 405.3 477.39 411.14 477.93C417.02 478.46 422.23 482.01 424.87 487.3L437.21 512L460.8 512C470.22 512 477.87 519.63 477.87 529.06Z" />
	</g>
</svg>