<svg xmlns="http://www.w3.org/2000/svg" viewBox="0 0 930 960" ><g>
		<path id="Path 1" fill-rule="evenodd" class="shp0" d="M916.19 892.55C780.42 936.68 624.4 960 465 960C305.6 960 149.58 936.68 13.81 892.55C4.05 889.38 -1.72 879.32 0.46 869.28L65.39 570.26C71.52 542 85.98 516.71 107.21 497.11C144.16 463 165.36 415.77 165.36 367.53L165.36 229.38C165.36 207.66 176.75 187.77 195.08 177.46C201.39 173.92 205.31 167.23 205.31 160L205.31 60C205.31 26.92 232.19 0 265.24 0L305.19 0C338.23 0 365.12 26.92 365.12 60L365.12 80C365.12 135.14 409.92 180 465 180C520.07 180 564.88 135.14 564.88 80L564.88 60C564.88 26.92 591.76 0 624.81 0L664.76 0C697.8 0 724.69 26.92 724.69 60L724.69 160C724.69 167.23 728.61 173.92 734.91 177.46C753.25 187.77 764.64 207.66 764.64 229.38L764.64 367.53C764.64 415.77 785.83 463 822.79 497.11C844.01 516.71 858.47 542 864.61 570.26L929.54 869.28C931.72 879.32 925.95 889.38 916.19 892.55ZM405.07 420L365.12 420L365.12 447.62C365.12 447.78 365.12 447.94 365.12 448.11L365.12 500L405.07 500C427.1 500 445.02 482.06 445.02 460C445.02 437.94 427.1 420 405.07 420ZM524.93 420C502.9 420 484.98 437.94 484.98 460C484.98 482.06 502.9 500 524.93 500L564.88 500L564.88 448.11C564.88 447.94 564.88 447.78 564.88 447.62L564.88 420L524.93 420ZM202.13 403.59C241.39 413.16 282.64 420.53 325.17 425.59L325.17 400C325.17 388.96 334.11 380 345.14 380L405.07 380C428.91 380 450.35 390.51 465 407.14C479.65 390.51 501.09 380 524.93 380L584.85 380C595.89 380 604.83 388.96 604.83 400L604.83 425.59C647.36 420.53 688.61 413.16 727.87 403.59C725.77 391.72 724.69 379.65 724.69 367.53L724.69 229.38C724.69 222.11 721.11 215.58 715.36 212.35C696.47 201.73 684.74 181.67 684.74 160L684.74 60C684.74 48.97 675.77 40 664.76 40L624.81 40C613.79 40 604.83 48.97 604.83 60L604.83 80C604.83 157.2 542.1 220 465 220C387.89 220 325.17 157.2 325.17 80L325.17 60C325.17 48.97 316.2 40 305.19 40L265.24 40C254.22 40 245.26 48.97 245.26 60L245.26 160C245.26 181.67 233.53 201.73 214.64 212.34C208.88 215.58 205.31 222.11 205.31 229.38L205.31 367.53C205.31 379.65 204.23 391.71 202.13 403.59ZM886.63 859.96L825.57 578.76C821.19 558.57 810.86 540.51 795.71 526.52C769.98 502.78 750.51 473.74 738.52 442.16C695.89 452.61 651.05 460.56 604.83 465.86L604.83 520C604.83 531.05 595.89 540 584.86 540L524.93 540C501.09 540 479.65 529.49 465 512.86C450.35 529.49 428.91 540 405.07 540L345.14 540C334.11 540 325.17 531.05 325.17 520L325.17 465.86C278.95 460.56 234.11 452.61 191.48 442.17C179.49 473.74 160.02 502.78 134.29 526.52C119.14 540.51 108.82 558.57 104.43 578.76L43.37 859.96C96.45 876.29 152.56 889.42 210.67 899.18L266.08 714.26C269.25 703.68 280.39 697.66 290.95 700.85C301.52 704.02 307.52 715.17 304.35 725.75L250.54 905.31C313.76 914.13 379.01 919.05 445.02 919.88L445.02 660C445.02 648.96 453.97 640 465 640C476.03 640 484.98 648.96 484.98 660L484.98 919.87C550.99 919.05 616.24 914.13 679.46 905.31L625.65 725.75C622.48 715.17 628.48 704.02 639.05 700.84C649.6 697.67 660.75 703.67 663.92 714.25L719.33 899.18C777.44 889.41 833.56 876.29 886.63 859.96Z" />
	</g>
</svg>